<svg width="32" height="30" viewBox="0 0 32 30" fill="none" xmlns="http://www.w3.org/2000/svg">
<path d="M23.1117 0.5C20.3619 0.5 17.7226 1.78011 16 3.803C14.2774 1.78011 11.6382 0.5 8.8883 0.5C4.02072 0.5 0.196198 4.32452 0.196198 9.1921C0.196198 15.1659 5.56949 20.0335 13.7085 27.4297L16 29.5L18.2916 27.4139C26.4305 20.0335 31.8038 15.1659 31.8038 9.1921C31.8038 4.32452 27.9793 0.5 23.1117 0.5ZM16.1581 25.0749L16 25.233L15.842 25.0749C8.31936 18.2635 3.35696 13.7594 3.35696 9.1921C3.35696 6.03133 5.72753 3.66076 8.8883 3.66076C11.3221 3.66076 13.6927 5.22534 14.5303 7.39046H17.4856C18.3074 5.22534 20.6779 3.66076 23.1117 3.66076C26.2725 3.66076 28.6431 6.03133 28.6431 9.1921C28.6431 13.7594 23.6807 18.2635 16.1581 25.0749Z" fill="#EEE5F5"/>
</svg>
