<svg width="21" height="28" viewBox="0 0 21 28" fill="none" xmlns="http://www.w3.org/2000/svg">
<path id="Vector" d="M6.21429 26.6C6.21429 27.37 6.85714 28 7.64286 28H13.3571C14.1429 28 14.7857 27.37 14.7857 26.6V25.2H6.21429V26.6ZM10.5 0C4.98571 0 0.5 4.396 0.5 9.8C0.5 13.132 2.2 16.058 4.78571 17.836V21C4.78571 21.77 5.42857 22.4 6.21429 22.4H14.7857C15.5714 22.4 16.2143 21.77 16.2143 21V17.836C18.8 16.058 20.5 13.132 20.5 9.8C20.5 4.396 16.0143 0 10.5 0ZM14.5714 15.54L13.3571 16.38V19.6H7.64286V16.38L6.42857 15.54C4.5 14.224 3.35714 12.082 3.35714 9.8C3.35714 5.936 6.55714 2.8 10.5 2.8C14.4429 2.8 17.6429 5.936 17.6429 9.8C17.6429 12.082 16.5 14.224 14.5714 15.54Z" fill="#562CAF"/>
</svg>
