<svg width="1077" height="2532" viewBox="0 0 1077 2532" fill="none" xmlns="http://www.w3.org/2000/svg">
<g clip-path="url(#clip0_80416_423)">
<path d="M506.541 2285.31L479.324 2284.43L478.769 2284.42L478.81 2284.97L487.289 2400.2L428.734 2399.32L431.616 2284.58L431.629 2284.07L431.12 2284.06L406.5 2283.88V2265.51L504.636 2267.47L506.541 2285.31Z" fill="#F7F6F0" stroke="#F7F6F0"/>
<path d="M620.976 2265C630.769 2265 652.313 2267.52 661.803 2274.68C661.9 2274.76 662.005 2274.83 662.117 2274.92C665.534 2277.46 675.596 2284.96 675.596 2308.82V2337.52C675.631 2346.18 674.186 2354.78 671.32 2362.99C670.276 2367.85 668.221 2372.46 665.279 2376.54M620.976 2265L604.507 2265.13M620.976 2265L620.98 2265.5L620.978 2265.5M620.976 2265V2265.5L604.994 2265.63M604.507 2265.13C603.348 2310.21 602.171 2355.3 600.976 2400.42M604.507 2265.13L605.007 2265.15C605.003 2265.31 604.999 2265.47 604.994 2265.63M604.507 2265.13L604.511 2265.63L604.994 2265.63M600.976 2400.42C605.905 2400.81 610.86 2400.81 615.79 2400.42M600.976 2400.42L601.016 2399.92C601.173 2399.93 601.331 2399.94 601.488 2399.95M600.976 2400.42L601.476 2400.43C601.48 2400.27 601.484 2400.11 601.488 2399.95M615.79 2400.42C648.424 2397.76 664.203 2377.95 665.279 2376.54M615.79 2400.42L615.75 2399.92C611.005 2400.3 606.235 2400.31 601.488 2399.95M615.79 2400.42L620.978 2265.5M665.279 2376.54L664.882 2376.24C664.88 2376.24 664.879 2376.24 664.878 2376.24M665.279 2376.54L664.873 2376.25C664.875 2376.25 664.876 2376.25 664.878 2376.24M664.878 2376.24C667.777 2372.22 669.802 2367.67 670.831 2362.88L670.838 2362.85L670.848 2362.82C673.696 2354.67 675.131 2346.12 675.096 2337.52L675.096 2337.52V2337.43V2337.34V2337.25V2337.16V2337.06V2336.97V2336.88V2336.8V2336.71V2336.62V2336.53V2336.44V2336.35V2336.27V2336.18V2336.09V2336.01V2335.92V2335.84V2335.75V2335.67V2335.58V2335.5V2335.42V2335.33V2335.25V2335.17V2335.09V2335V2334.92V2334.84V2334.76V2334.68V2334.6V2334.52V2334.44V2334.36V2334.29V2334.21V2334.13V2334.05V2333.98V2333.9V2333.82V2333.75V2333.67V2333.6V2333.52V2333.45V2333.37V2333.3V2333.22V2333.15V2333.08V2333V2332.93V2332.86V2332.79V2332.72V2332.65V2332.58V2332.5V2332.43V2332.36V2332.29V2332.23V2332.16V2332.09V2332.02V2331.95V2331.88V2331.82V2331.75V2331.68V2331.62V2331.55V2331.48V2331.42V2331.35V2331.29V2331.22V2331.16V2331.09V2331.03V2330.96V2330.9V2330.84V2330.78V2330.71V2330.65V2330.59V2330.53V2330.46V2330.4V2330.34V2330.28V2330.22V2330.16V2330.1V2330.04V2329.98V2329.92V2329.86V2329.8V2329.74V2329.69V2329.63V2329.57V2329.51V2329.46V2329.4V2329.34V2329.28V2329.23V2329.17V2329.12V2329.06V2329V2328.95V2328.89V2328.84V2328.78V2328.73V2328.68V2328.62V2328.57V2328.51V2328.46V2328.41V2328.35V2328.3V2328.25V2328.2V2328.14V2328.09V2328.04V2327.99V2327.94V2327.89V2327.84V2327.78V2327.73V2327.68V2327.63V2327.58V2327.53V2327.48V2327.43V2327.38V2327.34V2327.29V2327.24V2327.19V2327.14V2327.09V2327.04V2327V2326.95V2326.9V2326.85V2326.81V2326.76V2326.71V2326.66V2326.62V2326.57V2326.52V2326.48V2326.43V2326.39V2326.34V2326.29V2326.25V2326.2V2326.16V2326.11V2326.07V2326.02V2325.98V2325.93V2325.89V2325.84V2325.8V2325.76V2325.71V2325.67V2325.62V2325.58V2325.54V2325.49V2325.45V2325.41V2325.36V2325.32V2325.28V2325.24V2325.19V2325.15V2325.11V2325.07V2325.02V2324.98V2324.94V2324.9V2324.86V2324.81V2324.77V2324.73V2324.69V2324.65V2324.61V2324.56V2324.52V2324.48V2324.44V2324.4V2324.36V2324.32V2324.28V2324.24V2324.2V2324.16V2324.12V2324.07V2324.03V2323.99V2323.95V2323.91V2323.87V2323.83V2323.79V2323.75V2323.71V2323.67V2323.63V2323.59V2323.55V2323.51V2323.47V2323.43V2323.39V2323.36V2323.32V2323.28V2323.24V2323.2V2323.16V2323.12V2323.08V2323.04V2323V2322.96V2322.92V2322.88V2322.84V2322.8V2322.76V2322.72V2322.69V2322.65V2322.61V2322.57V2322.53V2322.49V2322.45V2322.41V2322.37V2322.33V2322.29V2322.25V2322.21V2322.18V2322.14V2322.1V2322.06V2322.02V2321.98V2321.94V2321.9V2321.86V2321.82V2321.78V2321.74V2321.7V2321.66V2321.62V2321.58V2321.54V2321.5V2321.46V2321.42V2321.38V2321.34V2321.3V2321.26V2321.22V2321.18V2321.14V2321.1V2321.06V2321.02V2320.98V2320.94V2320.9V2320.86V2320.82V2320.78V2320.74V2320.7V2320.66V2320.62V2320.58V2320.54V2320.49V2320.45V2320.41V2320.37V2320.33V2320.29V2320.25V2320.2V2320.16V2320.12V2320.08V2320.04V2319.99V2319.95V2319.91V2319.87V2319.82V2319.78V2319.74V2319.7V2319.65V2319.61V2319.57V2319.52V2319.48V2319.44V2319.39V2319.35V2319.3V2319.26V2319.22V2319.17V2319.13V2319.08V2319.04V2318.99V2318.95V2318.9V2318.86V2318.81V2318.77V2318.72V2318.68V2318.63V2318.58V2318.54V2318.49V2318.44V2318.4V2318.35V2318.3V2318.26V2318.21V2318.16V2318.11V2318.07V2318.02V2317.97V2317.92V2317.87V2317.83V2317.78V2317.73V2317.68V2317.63V2317.58V2317.53V2317.48V2317.43V2317.38V2317.33V2317.28V2317.23V2317.18V2317.13V2317.08V2317.02V2316.97V2316.92V2316.87V2316.82V2316.76V2316.71V2316.66V2316.61V2316.55V2316.5V2316.45V2316.39V2316.34V2316.28V2316.23V2316.17V2316.12V2316.06V2316.01V2315.95V2315.9V2315.84V2315.78V2315.73V2315.67V2315.61V2315.56V2315.5V2315.44V2315.38V2315.32V2315.27V2315.21V2315.15V2315.09V2315.03V2314.97V2314.91V2314.85V2314.79V2314.73V2314.67V2314.61V2314.55V2314.48V2314.42V2314.36V2314.3V2314.23V2314.17V2314.11V2314.04V2313.98V2313.92V2313.85V2313.79V2313.72V2313.66V2313.59V2313.53V2313.46V2313.39V2313.33V2313.26V2313.19V2313.12V2313.06V2312.99V2312.92V2312.85V2312.78V2312.71V2312.64V2312.57V2312.5V2312.43V2312.36V2312.29V2312.22V2312.15V2312.07V2312V2311.93V2311.85V2311.78V2311.71V2311.63V2311.56V2311.48V2311.41V2311.33V2311.26V2311.18V2311.11V2311.03V2310.95V2310.87V2310.8V2310.72V2310.64V2310.56V2310.48V2310.4V2310.32V2310.24V2310.16V2310.08V2310V2309.92V2309.83V2309.75V2309.67V2309.59V2309.5V2309.42V2309.33V2309.25V2309.16V2309.08V2308.99V2308.91V2308.82C675.096 2296.57 672.431 2288.71 669.418 2283.63C666.598 2278.88 663.457 2276.54 661.815 2275.32C661.704 2275.23 661.599 2275.15 661.502 2275.08L661.502 2275.08C656.853 2271.57 649.191 2269.17 641.407 2267.65C633.643 2266.13 625.841 2265.5 620.978 2265.5M664.878 2376.24L620.978 2265.5M604.994 2265.63C603.844 2310.39 602.675 2355.16 601.488 2399.95" fill="#F7F6F0" stroke="#F7F6F0"/>
<path d="M629.645 2306.4C632.991 2306.36 636.243 2307.46 638.813 2309.52C639.485 2310.27 641.924 2312.57 641.896 2320.51C641.896 2325.29 641.896 2324.67 641.896 2329.76C641.92 2332.53 641.6 2335.28 640.943 2337.97C640.718 2339.47 640.265 2340.94 639.598 2342.32C638.472 2344.34 636.874 2346.08 634.93 2347.42C632.985 2348.75 630.745 2349.64 628.384 2350.01C627.276 2350.14 626.156 2350.14 625.048 2350.01L625.833 2306.4H629.645Z" fill="#61549F"/>
<path d="M677.53 2307.86C676.717 2290.99 676.33 2276.88 676.107 2266.76L713.226 2265.99C712.947 2274.47 712.453 2287.08 711.589 2302.46L711.589 2302.46C711.342 2306.87 711.092 2311 710.859 2314.86C710.139 2326.74 709.577 2336.03 709.754 2343.04C709.872 2347.68 710.314 2351.37 711.274 2354.16C712.239 2356.97 713.74 2358.9 715.983 2359.97L715.984 2359.97C717.338 2360.61 718.827 2360.94 720.335 2360.94C721.843 2360.94 723.332 2360.61 724.686 2359.97L724.693 2359.96L724.699 2359.96C726.958 2358.81 728.398 2356.78 729.261 2353.92C730.119 2351.09 730.42 2347.39 730.386 2342.85C730.341 2336.94 729.725 2329.49 728.977 2320.46C728.577 2315.61 728.138 2310.31 727.73 2304.54C726.967 2293.42 726.312 2280.74 726.004 2266.73L764.16 2265.52C764.148 2276.19 763.786 2291.37 762.837 2309.63C761.03 2343.85 758.412 2363.17 755.477 2374.53C754.011 2380.2 752.47 2383.87 750.927 2386.4C749.391 2388.92 747.84 2390.34 746.317 2391.51L746.315 2391.51C739.342 2396.9 729.59 2399.87 719.806 2400.18C710.02 2400.49 700.273 2398.14 693.299 2392.98L693.298 2392.98C691.457 2391.62 689.781 2390.05 688.236 2387.37C686.683 2384.67 685.252 2380.83 683.942 2374.93C681.322 2363.13 679.213 2343.18 677.53 2307.86L677.53 2307.86Z" fill="#F7F6F0" stroke="#F7F6F0"/>
<path d="M596.746 2309.63C597.696 2291.37 598.058 2276.19 598.069 2265.52L559.913 2266.73C560.221 2280.74 560.876 2293.42 561.639 2304.54C562.047 2310.31 562.486 2315.61 562.887 2320.46C563.634 2329.49 564.25 2336.94 564.295 2342.85C564.33 2347.39 564.029 2351.09 563.17 2353.92C562.308 2356.78 560.868 2358.81 558.609 2359.96L558.602 2359.96L558.596 2359.97C557.242 2360.61 555.753 2360.94 554.245 2360.94C552.737 2360.94 551.248 2360.61 549.894 2359.97L549.893 2359.97C547.65 2358.9 546.148 2356.97 545.183 2354.16C544.224 2351.37 543.781 2347.68 543.664 2343.04C543.486 2336.03 544.049 2326.74 544.768 2314.86C545.002 2311 545.252 2306.87 545.498 2302.46L545.498 2302.46C546.363 2287.08 546.857 2274.47 547.136 2265.99L510.017 2266.76C510.239 2276.88 510.626 2290.99 511.44 2307.86L511.44 2307.86C513.122 2343.18 515.231 2363.13 517.852 2374.93C519.161 2380.83 520.593 2384.67 522.145 2387.37C523.69 2390.05 525.366 2391.62 527.207 2392.98L527.208 2392.98C534.182 2398.14 543.93 2400.49 553.715 2400.18C563.499 2399.87 573.251 2396.9 580.225 2391.51L580.226 2391.51C581.75 2390.34 583.3 2388.92 584.837 2386.4C586.38 2383.87 587.92 2380.2 589.387 2374.53C592.321 2363.17 594.94 2343.85 596.746 2309.63ZM596.746 2309.63C596.746 2309.63 596.746 2309.63 596.746 2309.63L597.246 2309.65L596.746 2309.63ZM580.531 2391.9C566.381 2402.85 541.088 2403.88 526.911 2393.38C519.381 2387.83 514.306 2378.52 510.941 2307.88L580.531 2391.9Z" fill="#F7F6F0" stroke="#F7F6F0"/>
<path d="M921.025 975.239L900.09 1086.44" stroke="#303031" stroke-width="42" stroke-miterlimit="10"/>
<path d="M747.818 970.394L769.634 1081.59" stroke="#303031" stroke-width="42" stroke-miterlimit="10"/>
<path d="M834.864 953V1066.18" stroke="#303031" stroke-width="42" stroke-miterlimit="10"/>
<path d="M822.962 1416.94C927.02 1416.94 1011.38 1332.66 1011.38 1228.68C1011.38 1124.7 927.02 1040.42 822.962 1040.42C718.904 1040.42 634.549 1124.7 634.549 1228.68C634.549 1332.66 718.904 1416.94 822.962 1416.94Z" fill="#F1F1F1"/>
<path d="M782.855 1044.6C751.502 1051.44 722.417 1066.17 698.358 1087.39C674.299 1108.61 656.063 1135.62 645.38 1165.86C634.697 1196.1 631.921 1228.56 637.314 1260.17C642.707 1291.78 656.092 1321.49 676.198 1346.48C698.006 1357.19 721.977 1362.76 746.275 1362.78C785.88 1362.79 824.107 1348.25 853.673 1321.92C883.238 1295.59 902.075 1259.31 906.596 1219.99C911.116 1180.68 901.003 1141.07 878.183 1108.73C855.363 1076.38 821.433 1053.56 782.855 1044.6Z" fill="#303031"/>
<path d="M375.839 974.358L384.653 1087.1" stroke="#303031" stroke-width="42" stroke-miterlimit="10"/>
<path d="M207.261 1015.09L257.504 1116.38" stroke="#303031" stroke-width="42" stroke-miterlimit="10"/>
<path d="M286.812 975.46L316.341 1084.67" stroke="#303031" stroke-width="42" stroke-miterlimit="10"/>
<path d="M347.413 1433.02C451.471 1433.02 535.826 1348.73 535.826 1244.75C535.826 1140.78 451.471 1056.49 347.413 1056.49C243.355 1056.49 159 1140.78 159 1244.75C159 1348.73 243.355 1433.02 347.413 1433.02Z" fill="#F1F1F1"/>
<path d="M260.588 1077.19C232.245 1092.01 208.147 1113.81 190.565 1140.51C172.983 1167.22 162.497 1197.96 160.094 1229.84C157.691 1261.71 163.451 1293.68 176.83 1322.71C190.209 1351.75 210.768 1376.9 236.568 1395.81C260.403 1400.41 284.976 1399.51 308.407 1393.16C346.819 1383 380.123 1359.02 401.935 1325.83C423.748 1292.65 432.534 1252.58 426.609 1213.32C420.684 1174.06 400.464 1138.37 369.827 1113.08C339.19 1087.8 300.291 1074.7 260.588 1076.31V1077.19Z" fill="#303031"/>
<path d="M516.654 1439.84C514.254 1454.23 515.466 1468.98 520.18 1482.78C525.832 1501.12 537.762 1516.88 553.879 1527.31C569.996 1537.73 589.271 1542.16 608.327 1539.81C625.506 1537.09 641.302 1528.76 653.258 1516.14C665.214 1503.52 672.66 1487.3 674.437 1470.01C675.666 1456.26 673.471 1442.41 668.047 1429.72" stroke="#303031" stroke-width="42" stroke-miterlimit="10"/>
<path d="M409.775 1579C446.895 1579 476.987 1548.93 476.987 1511.84C476.987 1474.75 446.895 1444.68 409.775 1444.68C372.655 1444.68 342.564 1474.75 342.564 1511.84C342.564 1548.93 372.655 1579 409.775 1579Z" fill="#EB6027"/>
<path d="M797.958 1579C835.078 1579 865.17 1548.93 865.17 1511.84C865.17 1474.75 835.078 1444.68 797.958 1444.68C760.838 1444.68 730.747 1474.75 730.747 1511.84C730.747 1548.93 760.838 1579 797.958 1579Z" fill="#EB6027"/>
</g>
<defs>
<clipPath id="clip0_80416_423">
<rect width="1170" height="2532" fill="white"/>
</clipPath>
</defs>
</svg>
